# xmcd
#
# Track frame offsets:
#	150
#	13207
#	27841
#	42855
#	53911
#	69181
#	82954
#	100034
#	112337
#	126282
#	140652
#	154986
#
# Disc length: 2221 seconds
#
# Revision: 2088533118
# Processed by: cddbd v1.5.2PL0 Copyright (c) Steve Scherf et al.
# Submitted via: EZCDAudioConverter 8.5.0.1
#
DISCID=a108ab0c
DTITLE=Big Country Bluegrass - Mountains, Mamas And Memories
DYEAR=2019
DGENRE=Country
TTITLE0=Country Boy, Banjo And Flat Top Guitar
TTITLE1=The Whiskey Or The Coal
TTITLE2=Mama's Radio
TTITLE3=Keep On Going
TTITLE4=Times Were Good When Times Were Hard
TTITLE5=Carolina Traveler
TTITLE6=How Lucky I Was (To Be Their Son)
TTITLE7=Back To The Mountains
TTITLE8=Is This Seat Taken?
TTITLE9=The Hills Of Caroline
TTITLE10=You Can't Buy Your Way Out Of The Mines
TTITLE11=Dead Or Alive
EXTD=
EXTT0=
EXTT1=
EXTT2=
EXTT3=
EXTT4=
EXTT5=
EXTT6=
EXTT7=
EXTT8=
EXTT9=
EXTT10=
EXTT11=
PLAYORDER=
